<?xml version="1.0" encoding="UTF-8"?>
<svg id="_Слой_1" data-name="Слой 1" xmlns="http://www.w3.org/2000/svg" xmlns:xlink="http://www.w3.org/1999/xlink" viewBox="0 0 48 48">
  <defs>
    <style>
      .cls-1 {
        fill: #fff;
      }

      .cls-2 {
        mask: url(#mask);
      }

      .cls-3 {
        fill: #1f2a32;
      }

      .cls-4 {
        fill: #ffd479;
      }
    </style>
    <mask id="mask" x="0" y="0" width="48.01" height="48.01" maskUnits="userSpaceOnUse">
      <g id="mask0_2307_81" data-name="mask0 2307 81">
        <path class="cls-1" d="M48.01,0H0v48.01h48.01V0Z"/>
      </g>
    </mask>
  </defs>
  <g class="cls-2">
    <g>
      <path class="cls-4" d="M23.9,48h.19c9.53,0,15.07-.96,18.99-4.76,4-4.04,4.92-9.61,4.92-19.1v-.27c0-9.49-.92-15.03-4.92-19.1C39.16.96,33.59,0,24.1,0h-.19C14.37,0,8.84.96,4.92,4.76.92,8.8,0,14.37,0,23.87v.27c0,9.49.92,15.03,4.92,19.1,3.88,3.8,9.46,4.76,18.99,4.76Z"/>
      <path class="cls-3" d="M42.29,23.64c0-.18-.15-.33-.33-.34-6.56-.25-10.55-1.09-13.35-3.88-2.8-2.8-3.63-6.79-3.88-13.37,0-.18-.16-.33-.34-.33h-.77c-.18,0-.33.15-.34.33-.25,6.57-1.08,10.57-3.88,13.37-2.8,2.8-6.79,3.63-13.35,3.88-.18,0-.33.16-.33.34v.77c0,.18.15.33.33.34,6.56.25,10.55,1.09,13.35,3.88,2.79,2.79,3.63,6.78,3.88,13.33,0,.18.16.33.34.33h.77c.18,0,.33-.15.34-.33.25-6.55,1.09-10.53,3.88-13.33,2.8-2.8,6.79-3.63,13.35-3.88.18,0,.33-.16.33-.34v-.77h0Z"/>
    </g>
  </g>
</svg>